<svg width="15" height="15" viewBox="0 0 15 15" fill="none" xmlns="http://www.w3.org/2000/svg">
<circle cx="7.5" cy="7.5" r="7" stroke="#E6E6E6"/>
<path d="M6.75253 9.07599H7.81681V8.9929C7.8232 8.31534 8.04372 8.00533 8.56468 7.68572C9.15274 7.33416 9.52029 6.85476 9.52029 6.12287C9.52029 5.04261 8.67973 4.36506 7.45885 4.36506C6.34024 4.36506 5.43257 4.98509 5.40061 6.19957H6.5384C6.56716 5.59872 7.00182 5.31108 7.45246 5.31108C7.94145 5.31108 8.33456 5.63707 8.33456 6.13885C8.33456 6.58629 8.03733 6.89311 7.65061 7.13601C7.08492 7.48757 6.75892 7.84233 6.75253 8.9929V9.07599ZM7.31183 11.0703C7.68896 11.0703 8.01176 10.7571 8.01496 10.3672C8.01176 9.98366 7.68896 9.67045 7.31183 9.67045C6.92192 9.67045 6.60551 9.98366 6.60871 10.3672C6.60551 10.7571 6.92192 11.0703 7.31183 11.0703Z" fill="#111111"/>
</svg>
