<svg width="123" height="14" viewBox="0 0 123 14" fill="none" xmlns="http://www.w3.org/2000/svg">
<path d="M6.83594 0.328125C8.72396 0.328125 10.3353 0.995443 11.6699 2.33008C13.0046 3.66471 13.6719 5.27604 13.6719 7.16406C13.6719 9.05208 13.0046 10.6634 11.6699 11.998C10.3353 13.3327 8.72396 14 6.83594 14H0.976562V0.328125H6.83594ZM6.83594 10.0938C7.64323 10.0938 8.33333 9.80729 8.90625 9.23438C9.47917 8.66146 9.76562 7.97135 9.76562 7.16406C9.76562 6.35677 9.47917 5.66667 8.90625 5.09375C8.33333 4.52083 7.64323 4.23438 6.83594 4.23438H4.88281V10.0938H6.83594ZM27.3438 0.328125V4.23438H23.4375V10.0938H27.3438V14H15.625V10.0938H19.5312V4.23438H15.625V0.328125H27.3438ZM36.1328 0.328125H41.9922V4.23438H36.1328C35.3255 4.23438 34.6354 4.52083 34.0625 5.09375C33.4896 5.66667 33.2031 6.35677 33.2031 7.16406C33.2031 7.97135 33.4896 8.66146 34.0625 9.23438C34.6354 9.80729 35.3255 10.0938 36.1328 10.0938H38.0859V9.11719H36.1328V5.21094H41.9922V14H36.1328C34.2448 14 32.6335 13.3327 31.2988 11.998C29.9642 10.6634 29.2969 9.05208 29.2969 7.16406C29.2969 5.27604 29.9642 3.66471 31.2988 2.33008C32.6335 0.995443 34.2448 0.328125 36.1328 0.328125ZM55.6641 0.328125V4.23438H51.7578V10.0938H55.6641V14H43.9453V10.0938H47.8516V4.23438H43.9453V0.328125H55.6641ZM65.4297 4.23438V14H61.5234V4.23438H57.6172V0.328125H69.3359V4.23438H65.4297ZM77.6367 6.1875C77.6367 5.64714 77.4447 5.18815 77.0605 4.81055C76.6829 4.42643 76.224 4.23438 75.6836 4.23438C75.1432 4.23438 74.681 4.42643 74.2969 4.81055C73.9193 5.18815 73.7305 5.64714 73.7305 6.1875V8.14062H77.6367V6.1875ZM69.8242 6.1875C69.8242 4.56641 70.3939 3.1862 71.5332 2.04688C72.679 0.901042 74.0625 0.328125 75.6836 0.328125C77.3047 0.328125 78.6849 0.901042 79.8242 2.04688C80.9701 3.1862 81.543 4.56641 81.543 6.1875V14H77.6367V12.0469H73.7305V14H69.8242V6.1875ZM83.4961 0.328125H87.4023V10.0938H93.2617V14H83.4961V0.328125ZM103.027 6.1875C103.027 5.64714 102.835 5.18815 102.451 4.81055C102.074 4.42643 101.615 4.23438 101.074 4.23438C100.534 4.23438 100.072 4.42643 99.6875 4.81055C99.3099 5.18815 99.1211 5.64714 99.1211 6.1875V8.14062H103.027V6.1875ZM95.2148 6.1875C95.2148 4.56641 95.7845 3.1862 96.9238 2.04688C98.0697 0.901042 99.4531 0.328125 101.074 0.328125C102.695 0.328125 104.076 0.901042 105.215 2.04688C106.361 3.1862 106.934 4.56641 106.934 6.1875V14H103.027V12.0469H99.1211V14H95.2148V6.1875ZM115.723 4.23438L119.629 0.328125H122.559V3.25781L118.652 7.16406L122.559 11.0703V14H119.629L115.723 10.0938L111.816 14H108.887V11.0703L112.793 7.16406L108.887 3.25781V0.328125H111.816L115.723 4.23438Z" fill="black"/>
</svg>
